<svg width="84" height="90" viewBox="0 0 84 90" fill="none" xmlns="http://www.w3.org/2000/svg">
<path d="M82.2078 54.0706L65.9578 46.9806C62.0278 45.2706 58.8978 42.1306 57.1878 38.2106L50.0978 21.9606C49.5478 20.7006 47.7578 20.7006 47.2078 21.9606L40.1178 38.2106C38.4078 42.1406 35.2678 45.2706 31.3478 46.9806L15.0778 54.0806C13.8178 54.6306 13.8178 56.4106 15.0778 56.9606L31.6278 64.2806C35.5478 66.0106 38.6678 69.1606 40.3578 73.1006L47.2178 89.0406C47.7578 90.3106 49.5578 90.3106 50.1078 89.0406L57.1878 72.8206C58.8978 68.8906 62.0378 65.7606 65.9578 64.0506L82.2078 56.9606C83.4678 56.4106 83.4678 54.6206 82.2078 54.0706Z" fill="black"/>
<path d="M16.8525 43.4919L20.1725 35.8819C20.9725 34.0419 22.4425 32.5719 24.2825 31.7719L31.9025 28.4519C32.4925 28.1919 32.4925 27.3519 31.9025 27.1019L24.2825 23.7819C22.4425 22.9819 20.9725 21.5119 20.1725 19.6719L16.8525 12.0519C16.5925 11.4619 15.7525 11.4619 15.5025 12.0519L12.1825 19.6719C11.3825 21.5119 9.9125 22.9819 8.0725 23.7819L0.4425 27.1119C-0.1475 27.3719 -0.1475 28.2019 0.4425 28.4619L8.2025 31.8919C10.0425 32.7019 11.5025 34.1819 12.2925 36.0219L15.5125 43.4919C15.7725 44.0819 16.6125 44.0919 16.8625 43.4919H16.8525Z" fill="black"/>
<path d="M31.4569 8.9325L35.5769 10.7525C36.5569 11.1825 37.3269 11.9725 37.7469 12.9425L39.4569 16.9125C39.5969 17.2325 40.0369 17.2325 40.1769 16.9125L41.9369 12.8725C42.3669 11.8925 43.1469 11.1125 44.1169 10.6925L48.1569 8.9325C48.4669 8.7925 48.4669 8.3525 48.1569 8.2125L44.1169 6.4525C43.1369 6.0225 42.3569 5.2425 41.9369 4.2725L40.1769 0.2325C40.0369 -0.0775 39.5969 -0.0775 39.4569 0.2325L37.6969 4.2725C37.2669 5.2525 36.4869 6.0325 35.5169 6.4525L31.4669 8.2225C31.1569 8.3625 31.1569 8.8025 31.4669 8.9425L31.4569 8.9325Z" fill="black"/>
</svg>
